<?xml version="1.0" encoding="UTF-8"?>
<svg width="1141px" height="352px" viewBox="0 0 1141 352" version="1.1" xmlns="http://www.w3.org/2000/svg" xmlns:xlink="http://www.w3.org/1999/xlink">
    <title>hazharLogo</title>
    <g id="Page-1" stroke="none" stroke-width="1" fill="none" fill-rule="evenodd">
        <g id="GenRepo.ai-black-Outlines">
            <g id="Pink">
                <path d="M120.695116,0 L226.485823,0 C256.3092,-5.47846538e-15 280.485823,24.1766235 280.485823,54 L280.485823,164.723545 C280.485823,184.506339 264.4487,200.543462 244.665906,200.543462 C235.085336,200.543462 225.904046,196.705515 219.173643,189.88723 L157.954847,127.869062 C157.892592,127.805994 157.830181,127.743079 157.767616,127.680318 L94.1736435,63.8872298 C79.571957,49.2398247 79.6090192,25.5287512 94.2564243,10.9270647 C101.275992,3.92940669 110.783429,8.92617484e-15 120.695116,0 Z" id="Rectangle" fill="#EA577B" transform="translate(155.485823, 126.000000) rotate(180.000000) translate(-155.485823, -126.000000) "></path>
                <path d="M90.2092932,100 L196,100 C225.823376,100 250,124.176624 250,154 L250,264.723545 C250,284.506339 233.962877,300.543462 214.180083,300.543462 C204.599513,300.543462 195.418222,296.705515 188.68782,289.88723 L127.469024,227.869062 C127.406768,227.805994 127.344358,227.743079 127.281792,227.680318 L63.6878202,163.88723 C49.0861337,149.239825 49.1231959,125.528751 63.770601,110.927065 C70.790169,103.929407 80.2976055,100 90.2092932,100 Z" id="Rectangle" fill="#3DBCF8" opacity="0.666829427"></path>
            </g>
            <g id="GenRepo.ai" transform="translate(284.658203, 104.612305)" fill="#000000" fill-rule="nonzero">
                <path d="M92.3466797,22.1264648 C92.3466797,23.7407227 92.2770996,25.1323242 92.1379395,26.3012695 C91.9987793,27.4702148 91.8039551,28.4025879 91.5534668,29.0983887 C91.3029785,29.7941895 90.9968262,30.28125 90.6350098,30.5595703 C90.2731934,30.8378906 89.8417969,30.9770508 89.3408203,30.9770508 C88.6171875,30.9770508 87.4482422,30.4760742 85.8339844,29.4741211 C84.2197266,28.472168 82.0766602,27.3867188 79.4047852,26.2177734 C76.7329102,25.0488281 73.5461426,23.9633789 69.8444824,22.9614258 C66.1428223,21.9594727 61.8427734,21.4584961 56.9443359,21.4584961 C51.7119141,21.4584961 46.9804688,22.3630371 42.75,24.1721191 C38.5195312,25.9812012 34.9013672,28.541748 31.8955078,31.8537598 C28.8896484,35.1657715 26.5795898,39.145752 24.965332,43.7937012 C23.3510742,48.4416504 22.5439453,53.5766602 22.5439453,59.1987305 C22.5439453,65.3774414 23.3649902,70.8186035 25.0070801,75.5222168 C26.6491699,80.2258301 28.9453125,84.1640625 31.8955078,87.3369141 C34.8457031,90.5097656 38.3942871,92.9033203 42.5412598,94.5175781 C46.6882324,96.1318359 51.2666016,96.9389648 56.2763672,96.9389648 C58.7255859,96.9389648 61.1469727,96.6606445 63.5405273,96.1040039 C65.934082,95.5473633 68.1606445,94.7124023 70.2202148,93.5991211 L70.2202148,68.550293 L49.7636719,68.550293 C48.7617188,68.550293 47.9824219,67.9240723 47.4257812,66.6716309 C46.8691406,65.4191895 46.5908203,63.2900391 46.5908203,60.2841797 C46.5908203,58.7255859 46.6604004,57.4174805 46.7995605,56.3598633 C46.9387207,55.3022461 47.1474609,54.4533691 47.4257812,53.8132324 C47.7041016,53.1730957 48.0380859,52.6999512 48.4277344,52.3937988 C48.8173828,52.0876465 49.2626953,51.9345703 49.7636719,51.9345703 L86.2514648,51.9345703 C87.1420898,51.9345703 87.9353027,52.0876465 88.6311035,52.3937988 C89.3269043,52.6999512 89.939209,53.1591797 90.4680176,53.7714844 C90.9968262,54.3837891 91.4003906,55.1213379 91.6787109,55.9841309 C91.9570312,56.8469238 92.0961914,57.8349609 92.0961914,58.9482422 L92.0961914,101.94873 C92.0961914,103.618652 91.8039551,105.079834 91.2194824,106.332275 C90.6350098,107.584717 89.4382324,108.572754 87.6291504,109.296387 C85.8200684,110.02002 83.5795898,110.771484 80.9077148,111.550781 C78.2358398,112.330078 75.4665527,112.998047 72.5998535,113.554688 C69.7331543,114.111328 66.838623,114.528809 63.9162598,114.807129 C60.9938965,115.085449 58.0576172,115.224609 55.1074219,115.224609 C46.4794922,115.224609 38.7561035,113.986084 31.9372559,111.509033 C25.1184082,109.031982 19.3432617,105.44165 14.6118164,100.738037 C9.88037109,96.0344238 6.26220703,90.3010254 3.75732422,83.5378418 C1.25244141,76.7746582 0,69.1069336 0,60.534668 C0,51.684082 1.3359375,43.7380371 4.0078125,36.6965332 C6.6796875,29.6550293 10.4648438,23.6711426 15.3632812,18.744873 C20.2617188,13.8186035 26.1760254,10.0473633 33.1062012,7.43115234 C40.036377,4.81494141 47.7597656,3.50683594 56.2763672,3.50683594 C60.9521484,3.50683594 65.2104492,3.8269043 69.0512695,4.46704102 C72.8920898,5.10717773 76.2458496,5.88647461 79.1125488,6.80493164 C81.979248,7.72338867 84.3588867,8.71142578 86.2514648,9.76904297 C88.144043,10.8266602 89.4660645,11.7451172 90.2175293,12.5244141 C90.9689941,13.3037109 91.5117188,14.4030762 91.8457031,15.8225098 C92.1796875,17.2419434 92.3466797,19.3432617 92.3466797,22.1264648 Z" id="Path"></path>
                <path d="M187.532227,71.1386719 C187.532227,73.6992188 186.96167,75.5917969 185.820557,76.8164062 C184.679443,78.0410156 183.106934,78.6533203 181.103027,78.6533203 L135.764648,78.6533203 C135.764648,81.8261719 136.140381,84.7067871 136.891846,87.295166 C137.643311,89.8835449 138.840088,92.0822754 140.482178,93.8913574 C142.124268,95.7004395 144.239502,97.078125 146.827881,98.0244141 C149.41626,98.9707031 152.519531,99.4438477 156.137695,99.4438477 C159.811523,99.4438477 163.040039,99.1794434 165.823242,98.6506348 C168.606445,98.1218262 171.013916,97.5373535 173.045654,96.8972168 C175.077393,96.2570801 176.76123,95.6726074 178.097168,95.1437988 C179.433105,94.6149902 180.518555,94.3505859 181.353516,94.3505859 C181.854492,94.3505859 182.271973,94.447998 182.605957,94.6428223 C182.939941,94.8376465 183.218262,95.1855469 183.440918,95.6865234 C183.663574,96.1875 183.81665,96.8972168 183.900146,97.8156738 C183.983643,98.7341309 184.025391,99.8891602 184.025391,101.280762 C184.025391,102.505371 183.997559,103.549072 183.941895,104.411865 C183.88623,105.274658 183.802734,106.012207 183.691406,106.624512 C183.580078,107.236816 183.413086,107.751709 183.19043,108.169189 C182.967773,108.58667 182.675537,108.990234 182.313721,109.379883 C181.951904,109.769531 180.963867,110.29834 179.349609,110.966309 C177.735352,111.634277 175.675781,112.28833 173.170898,112.928467 C170.666016,113.568604 167.799316,114.125244 164.570801,114.598389 C161.342285,115.071533 157.891113,115.308105 154.217285,115.308105 C147.593262,115.308105 141.790283,114.473145 136.80835,112.803223 C131.826416,111.133301 127.665527,108.600586 124.325684,105.205078 C120.98584,101.80957 118.494873,97.5234375 116.852783,92.3466797 C115.210693,87.1699219 114.389648,81.1025391 114.389648,74.1445312 C114.389648,67.5205078 115.252441,61.5505371 116.978027,56.2346191 C118.703613,50.9187012 121.208496,46.4099121 124.492676,42.708252 C127.776855,39.0065918 131.770752,36.1816406 136.474365,34.2333984 C141.177979,32.2851562 146.47998,31.3110352 152.380371,31.3110352 C158.614746,31.3110352 163.94458,32.2294922 168.369873,34.0664062 C172.795166,35.9033203 176.427246,38.4499512 179.266113,41.7062988 C182.10498,44.9626465 184.192383,48.8173828 185.52832,53.2705078 C186.864258,57.7236328 187.532227,62.5664062 187.532227,67.7988281 L187.532227,71.1386719 Z M167.15918,65.1269531 C167.326172,59.2265625 166.143311,54.5925293 163.610596,51.2248535 C161.077881,47.8571777 157.16748,46.1733398 151.879395,46.1733398 C149.20752,46.1733398 146.883545,46.6743164 144.907471,47.6762695 C142.931396,48.6782227 141.289307,50.0280762 139.981201,51.7258301 C138.673096,53.423584 137.671143,55.4274902 136.975342,57.7375488 C136.279541,60.0476074 135.875977,62.5107422 135.764648,65.1269531 L167.15918,65.1269531 Z" id="Shape"></path>
                <path d="M281.29834,110.548828 C281.29834,111.105469 281.131348,111.592529 280.797363,112.01001 C280.463379,112.42749 279.906738,112.775391 279.127441,113.053711 C278.348145,113.332031 277.276611,113.540771 275.912842,113.679932 C274.549072,113.819092 272.865234,113.888672 270.861328,113.888672 C268.801758,113.888672 267.090088,113.819092 265.726318,113.679932 C264.362549,113.540771 263.291016,113.332031 262.511719,113.053711 C261.732422,112.775391 261.175781,112.42749 260.841797,112.01001 C260.507812,111.592529 260.34082,111.105469 260.34082,110.548828 L260.34082,68.0493164 C260.34082,64.4311523 260.076416,61.5922852 259.547607,59.5327148 C259.018799,57.4731445 258.253418,55.7058105 257.251465,54.2307129 C256.249512,52.7556152 254.955322,51.614502 253.368896,50.807373 C251.782471,50.0002441 249.931641,49.5966797 247.816406,49.5966797 C245.144531,49.5966797 242.444824,50.5708008 239.717285,52.519043 C236.989746,54.4672852 234.150879,57.3061523 231.200684,61.0356445 L231.200684,110.548828 C231.200684,111.105469 231.033691,111.592529 230.699707,112.01001 C230.365723,112.42749 229.795166,112.775391 228.988037,113.053711 C228.180908,113.332031 227.109375,113.540771 225.773438,113.679932 C224.4375,113.819092 222.739746,113.888672 220.680176,113.888672 C218.620605,113.888672 216.922852,113.819092 215.586914,113.679932 C214.250977,113.540771 213.179443,113.332031 212.372314,113.053711 C211.565186,112.775391 210.994629,112.42749 210.660645,112.01001 C210.32666,111.592529 210.159668,111.105469 210.159668,110.548828 L210.159668,36.0703125 C210.159668,35.5136719 210.298828,35.0266113 210.577148,34.6091309 C210.855469,34.1916504 211.356445,33.84375 212.080078,33.5654297 C212.803711,33.2871094 213.736084,33.0783691 214.877197,32.939209 C216.018311,32.8000488 217.45166,32.7304688 219.177246,32.7304688 C220.958496,32.7304688 222.433594,32.8000488 223.602539,32.939209 C224.771484,33.0783691 225.676025,33.2871094 226.316162,33.5654297 C226.956299,33.84375 227.415527,34.1916504 227.693848,34.6091309 C227.972168,35.0266113 228.111328,35.5136719 228.111328,36.0703125 L228.111328,44.6704102 C232.230469,40.2172852 236.419189,36.8774414 240.67749,34.6508789 C244.935791,32.4243164 249.375,31.3110352 253.995117,31.3110352 C259.060547,31.3110352 263.332764,32.1459961 266.811768,33.815918 C270.290771,35.4858398 273.101807,37.7541504 275.244873,40.6208496 C277.387939,43.4875488 278.932617,46.8413086 279.878906,50.6821289 C280.825195,54.5229492 281.29834,59.1430664 281.29834,64.5424805 L281.29834,110.548828 Z" id="Path"></path>
                <path d="M388.674316,110.548828 C388.674316,111.161133 388.562988,111.676025 388.340332,112.093506 C388.117676,112.510986 387.588867,112.858887 386.753906,113.137207 C385.918945,113.415527 384.694336,113.610352 383.080078,113.72168 C381.46582,113.833008 379.26709,113.888672 376.483887,113.888672 C374.145996,113.888672 372.28125,113.833008 370.889648,113.72168 C369.498047,113.610352 368.398682,113.401611 367.591553,113.095459 C366.784424,112.789307 366.213867,112.399658 365.879883,111.926514 C365.545898,111.453369 365.267578,110.882812 365.044922,110.214844 L355.359375,86.0844727 C354.19043,83.3569336 353.049316,80.9355469 351.936035,78.8203125 C350.822754,76.7050781 349.584229,74.9377441 348.220459,73.5183105 C346.856689,72.098877 345.28418,71.0273438 343.50293,70.3037109 C341.72168,69.5800781 339.662109,69.2182617 337.324219,69.2182617 L330.477539,69.2182617 L330.477539,110.381836 C330.477539,110.938477 330.296631,111.439453 329.934814,111.884766 C329.572998,112.330078 328.974609,112.691895 328.139648,112.970215 C327.304688,113.248535 326.191406,113.471191 324.799805,113.638184 C323.408203,113.805176 321.626953,113.888672 319.456055,113.888672 C317.34082,113.888672 315.573486,113.805176 314.154053,113.638184 C312.734619,113.471191 311.607422,113.248535 310.772461,112.970215 C309.9375,112.691895 309.353027,112.330078 309.019043,111.884766 C308.685059,111.439453 308.518066,110.938477 308.518066,110.381836 L308.518066,12.2739258 C308.518066,9.82470703 309.144287,8.05737305 310.396729,6.97192383 C311.64917,5.88647461 313.193848,5.34375 315.030762,5.34375 L343.001953,5.34375 C345.84082,5.34375 348.178711,5.39941406 350.015625,5.51074219 C351.852539,5.62207031 353.522461,5.76123047 355.025391,5.92822266 C359.367188,6.54052734 363.277588,7.59814453 366.756592,9.10107422 C370.235596,10.6040039 373.185791,12.5661621 375.607178,14.9875488 C378.028564,17.4089355 379.879395,20.2756348 381.159668,23.5876465 C382.439941,26.8996582 383.080078,30.6987305 383.080078,34.9848633 C383.080078,38.6030273 382.62085,41.901123 381.702393,44.8791504 C380.783936,47.8571777 379.434082,50.5151367 377.652832,52.8530273 C375.871582,55.190918 373.672852,57.2226562 371.056641,58.9482422 C368.44043,60.6738281 365.462402,62.0654297 362.122559,63.1230469 C363.736816,63.9023438 365.253662,64.8486328 366.673096,65.9619141 C368.092529,67.0751953 369.428467,68.4250488 370.680908,70.0114746 C371.93335,71.5979004 373.116211,73.4069824 374.229492,75.4387207 C375.342773,77.470459 376.428223,79.7666016 377.48584,82.3271484 L386.586914,103.618652 C387.421875,105.733887 387.978516,107.278564 388.256836,108.252686 C388.535156,109.226807 388.674316,109.992188 388.674316,110.548828 Z M360.369141,37.2392578 C360.369141,33.6767578 359.562012,30.6708984 357.947754,28.2216797 C356.333496,25.7724609 353.689453,24.046875 350.015625,23.0449219 C348.902344,22.7666016 347.635986,22.5439453 346.216553,22.3769531 C344.797119,22.2099609 342.834961,22.1264648 340.330078,22.1264648 L330.477539,22.1264648 L330.477539,52.7695312 L341.666016,52.7695312 C344.783203,52.7695312 347.510742,52.3937988 349.848633,51.642334 C352.186523,50.8908691 354.134766,49.833252 355.693359,48.4694824 C357.251953,47.1057129 358.420898,45.4775391 359.200195,43.5849609 C359.979492,41.6923828 360.369141,39.5771484 360.369141,37.2392578 Z" id="Shape"></path>
                <path d="M475.17627,71.1386719 C475.17627,73.6992188 474.605713,75.5917969 473.4646,76.8164062 C472.323486,78.0410156 470.750977,78.6533203 468.74707,78.6533203 L423.408691,78.6533203 C423.408691,81.8261719 423.784424,84.7067871 424.535889,87.295166 C425.287354,89.8835449 426.484131,92.0822754 428.126221,93.8913574 C429.768311,95.7004395 431.883545,97.078125 434.471924,98.0244141 C437.060303,98.9707031 440.163574,99.4438477 443.781738,99.4438477 C447.455566,99.4438477 450.684082,99.1794434 453.467285,98.6506348 C456.250488,98.1218262 458.657959,97.5373535 460.689697,96.8972168 C462.721436,96.2570801 464.405273,95.6726074 465.741211,95.1437988 C467.077148,94.6149902 468.162598,94.3505859 468.997559,94.3505859 C469.498535,94.3505859 469.916016,94.447998 470.25,94.6428223 C470.583984,94.8376465 470.862305,95.1855469 471.084961,95.6865234 C471.307617,96.1875 471.460693,96.8972168 471.544189,97.8156738 C471.627686,98.7341309 471.669434,99.8891602 471.669434,101.280762 C471.669434,102.505371 471.641602,103.549072 471.585938,104.411865 C471.530273,105.274658 471.446777,106.012207 471.335449,106.624512 C471.224121,107.236816 471.057129,107.751709 470.834473,108.169189 C470.611816,108.58667 470.31958,108.990234 469.957764,109.379883 C469.595947,109.769531 468.60791,110.29834 466.993652,110.966309 C465.379395,111.634277 463.319824,112.28833 460.814941,112.928467 C458.310059,113.568604 455.443359,114.125244 452.214844,114.598389 C448.986328,115.071533 445.535156,115.308105 441.861328,115.308105 C435.237305,115.308105 429.434326,114.473145 424.452393,112.803223 C419.470459,111.133301 415.30957,108.600586 411.969727,105.205078 C408.629883,101.80957 406.138916,97.5234375 404.496826,92.3466797 C402.854736,87.1699219 402.033691,81.1025391 402.033691,74.1445312 C402.033691,67.5205078 402.896484,61.5505371 404.62207,56.2346191 C406.347656,50.9187012 408.852539,46.4099121 412.136719,42.708252 C415.420898,39.0065918 419.414795,36.1816406 424.118408,34.2333984 C428.822021,32.2851562 434.124023,31.3110352 440.024414,31.3110352 C446.258789,31.3110352 451.588623,32.2294922 456.013916,34.0664062 C460.439209,35.9033203 464.071289,38.4499512 466.910156,41.7062988 C469.749023,44.9626465 471.836426,48.8173828 473.172363,53.2705078 C474.508301,57.7236328 475.17627,62.5664062 475.17627,67.7988281 L475.17627,71.1386719 Z M454.803223,65.1269531 C454.970215,59.2265625 453.787354,54.5925293 451.254639,51.2248535 C448.721924,47.8571777 444.811523,46.1733398 439.523438,46.1733398 C436.851562,46.1733398 434.527588,46.6743164 432.551514,47.6762695 C430.575439,48.6782227 428.93335,50.0280762 427.625244,51.7258301 C426.317139,53.423584 425.315186,55.4274902 424.619385,57.7375488 C423.923584,60.0476074 423.52002,62.5107422 423.408691,65.1269531 L454.803223,65.1269531 Z" id="Shape"></path>
                <path d="M572.783203,72.2241211 C572.783203,78.8481445 572.073486,84.8181152 570.654053,90.1340332 C569.234619,95.4499512 567.161133,99.9726562 564.433594,103.702148 C561.706055,107.431641 558.310547,110.29834 554.24707,112.302246 C550.183594,114.306152 545.535645,115.308105 540.303223,115.308105 C538.132324,115.308105 536.142334,115.099365 534.333252,114.681885 C532.52417,114.264404 530.770752,113.624268 529.072998,112.761475 C527.375244,111.898682 525.691406,110.827148 524.021484,109.546875 C522.351562,108.266602 520.625977,106.763672 518.844727,105.038086 L518.844727,140.106445 C518.844727,140.663086 518.677734,141.164062 518.34375,141.609375 C518.009766,142.054688 517.439209,142.43042 516.63208,142.736572 C515.824951,143.042725 514.753418,143.279297 513.41748,143.446289 C512.081543,143.613281 510.383789,143.696777 508.324219,143.696777 C506.264648,143.696777 504.566895,143.613281 503.230957,143.446289 C501.89502,143.279297 500.823486,143.042725 500.016357,142.736572 C499.209229,142.43042 498.638672,142.054688 498.304688,141.609375 C497.970703,141.164062 497.803711,140.663086 497.803711,140.106445 L497.803711,36.0703125 C497.803711,35.5136719 497.942871,35.0266113 498.221191,34.6091309 C498.499512,34.1916504 498.986572,33.84375 499.682373,33.5654297 C500.378174,33.2871094 501.296631,33.0783691 502.437744,32.939209 C503.578857,32.8000488 505.012207,32.7304688 506.737793,32.7304688 C508.407715,32.7304688 509.813232,32.8000488 510.954346,32.939209 C512.095459,33.0783691 513.013916,33.2871094 513.709717,33.5654297 C514.405518,33.84375 514.892578,34.1916504 515.170898,34.6091309 C515.449219,35.0266113 515.588379,35.5136719 515.588379,36.0703125 L515.588379,44.8374023 C517.759277,42.6108398 519.888428,40.6486816 521.97583,38.9509277 C524.063232,37.2531738 526.192383,35.8337402 528.363281,34.692627 C530.53418,33.5515137 532.774658,32.7026367 535.084717,32.1459961 C537.394775,31.5893555 539.85791,31.3110352 542.474121,31.3110352 C547.929199,31.3110352 552.577148,32.3825684 556.417969,34.5256348 C560.258789,36.6687012 563.389893,39.6049805 565.811279,43.3344727 C568.232666,47.0639648 570,51.4057617 571.113281,56.3598633 C572.226562,61.3139648 572.783203,66.6020508 572.783203,72.2241211 Z M550.907227,73.7270508 C550.907227,70.5541992 550.670654,67.5065918 550.19751,64.5842285 C549.724365,61.6618652 548.917236,59.0595703 547.776123,56.7773438 C546.63501,54.4951172 545.13208,52.6721191 543.267334,51.3083496 C541.402588,49.9445801 539.078613,49.2626953 536.29541,49.2626953 C534.903809,49.2626953 533.526123,49.4714355 532.162354,49.888916 C530.798584,50.3063965 529.406982,50.9882812 527.987549,51.9345703 C526.568115,52.8808594 525.106934,54.1054688 523.604004,55.6083984 C522.101074,57.1113281 520.514648,58.9760742 518.844727,61.2026367 L518.844727,85.7504883 C521.794922,89.4799805 524.605957,92.3605957 527.277832,94.392334 C529.949707,96.4240723 532.73291,97.4399414 535.627441,97.4399414 C538.35498,97.4399414 540.678955,96.7441406 542.599365,95.3525391 C544.519775,93.9609375 546.092285,92.1379395 547.316895,89.8835449 C548.541504,87.6291504 549.446045,85.0825195 550.030518,82.2436523 C550.61499,79.4047852 550.907227,76.565918 550.907227,73.7270508 Z" id="Shape"></path>
                <path d="M670.223145,72.5581055 C670.223145,78.9038086 669.388184,84.6928711 667.718262,89.925293 C666.04834,95.1577148 663.515625,99.6665039 660.120117,103.45166 C656.724609,107.236816 652.466309,110.15918 647.345215,112.21875 C642.224121,114.27832 636.240234,115.308105 629.393555,115.308105 C622.769531,115.308105 617.008301,114.389648 612.109863,112.552734 C607.211426,110.71582 603.147949,108.043945 599.919434,104.537109 C596.690918,101.030273 594.297363,96.7163086 592.73877,91.5952148 C591.180176,86.4741211 590.400879,80.6293945 590.400879,74.0610352 C590.400879,67.715332 591.249756,61.9123535 592.94751,56.6520996 C594.645264,51.3918457 597.191895,46.8830566 600.587402,43.1257324 C603.98291,39.3684082 608.227295,36.4599609 613.320557,34.4003906 C618.413818,32.3408203 624.383789,31.3110352 631.230469,31.3110352 C637.910156,31.3110352 643.699219,32.2155762 648.597656,34.0246582 C653.496094,35.8337402 657.545654,38.4916992 660.746338,41.9985352 C663.947021,45.5053711 666.32666,49.8193359 667.885254,54.9404297 C669.443848,60.0615234 670.223145,65.934082 670.223145,72.5581055 Z M648.597656,73.3930664 C648.597656,69.7192383 648.30542,66.3376465 647.720947,63.248291 C647.136475,60.1589355 646.148438,57.4731445 644.756836,55.190918 C643.365234,52.9086914 641.514404,51.1274414 639.204346,49.847168 C636.894287,48.5668945 633.98584,47.9267578 630.479004,47.9267578 C627.361816,47.9267578 624.634277,48.4973145 622.296387,49.6384277 C619.958496,50.779541 618.038086,52.4494629 616.535156,54.6481934 C615.032227,56.8469238 613.905029,59.4909668 613.153564,62.5803223 C612.4021,65.6696777 612.026367,69.1904297 612.026367,73.1425781 C612.026367,76.8164062 612.33252,80.197998 612.944824,83.2873535 C613.557129,86.376709 614.545166,89.0625 615.908936,91.3447266 C617.272705,93.6269531 619.123535,95.3942871 621.461426,96.6467285 C623.799316,97.8991699 626.693848,98.5253906 630.14502,98.5253906 C633.317871,98.5253906 636.073242,97.954834 638.411133,96.8137207 C640.749023,95.6726074 642.669434,94.0166016 644.172363,91.8457031 C645.675293,89.6748047 646.788574,87.0446777 647.512207,83.9553223 C648.23584,80.8659668 648.597656,77.3452148 648.597656,73.3930664 Z" id="Shape"></path>
                <path d="M716.897461,101.364258 C716.897461,106.541016 715.99292,110.02002 714.183838,111.80127 C712.374756,113.58252 709.132324,114.473145 704.456543,114.473145 C699.780762,114.473145 696.552246,113.596436 694.770996,111.843018 C692.989746,110.0896 692.099121,106.763672 692.099121,101.865234 C692.099121,96.6328125 693.003662,93.1259766 694.812744,91.3447266 C696.621826,89.5634766 699.89209,88.6728516 704.623535,88.6728516 C709.243652,88.6728516 712.444336,89.5495605 714.225586,91.3029785 C716.006836,93.0563965 716.897461,96.4101562 716.897461,101.364258 Z" id="Path"></path>
                <path d="M806.655762,110.799316 C806.655762,111.578613 806.377441,112.190918 805.820801,112.63623 C805.26416,113.081543 804.387451,113.401611 803.190674,113.596436 C801.993896,113.79126 800.226562,113.888672 797.888672,113.888672 C795.383789,113.888672 793.560791,113.79126 792.419678,113.596436 C791.278564,113.401611 790.471436,113.081543 789.998291,112.63623 C789.525146,112.190918 789.288574,111.578613 789.288574,110.799316 L789.288574,104.871094 C786.227051,108.155273 782.734131,110.71582 778.809814,112.552734 C774.885498,114.389648 770.529785,115.308105 765.742676,115.308105 C761.790527,115.308105 758.158447,114.793213 754.846436,113.763428 C751.534424,112.733643 748.667725,111.202881 746.246338,109.171143 C743.824951,107.139404 741.946289,104.620605 740.610352,101.614746 C739.274414,98.6088867 738.606445,95.1020508 738.606445,91.0942383 C738.606445,86.7524414 739.455322,82.9812012 741.153076,79.7805176 C742.85083,76.579834 745.383545,73.935791 748.751221,71.8483887 C752.118896,69.7609863 756.307617,68.2163086 761.317383,67.2143555 C766.327148,66.2124023 772.144043,65.7114258 778.768066,65.7114258 L786.032227,65.7114258 L786.032227,61.2026367 C786.032227,58.8647461 785.795654,56.8190918 785.32251,55.0656738 C784.849365,53.3122559 784.070068,51.8510742 782.984619,50.6821289 C781.89917,49.5131836 780.451904,48.6503906 778.642822,48.09375 C776.83374,47.5371094 774.593262,47.2587891 771.921387,47.2587891 C768.414551,47.2587891 765.283447,47.6484375 762.528076,48.4277344 C759.772705,49.2070312 757.337402,50.0698242 755.222168,51.0161133 C753.106934,51.9624023 751.3396,52.8251953 749.920166,53.6044922 C748.500732,54.3837891 747.345703,54.7734375 746.455078,54.7734375 C745.842773,54.7734375 745.300049,54.5786133 744.826904,54.1889648 C744.35376,53.7993164 743.964111,53.2426758 743.657959,52.519043 C743.351807,51.7954102 743.115234,50.9047852 742.948242,49.847168 C742.78125,48.7895508 742.697754,47.6206055 742.697754,46.340332 C742.697754,44.6147461 742.836914,43.2509766 743.115234,42.2490234 C743.393555,41.2470703 743.922363,40.3425293 744.70166,39.5354004 C745.480957,38.7282715 746.844727,37.8376465 748.792969,36.8635254 C750.741211,35.8894043 753.023438,34.9848633 755.639648,34.1499023 C758.255859,33.3149414 761.108643,32.6330566 764.197998,32.104248 C767.287354,31.5754395 770.474121,31.3110352 773.758301,31.3110352 C779.603027,31.3110352 784.598877,31.8815918 788.74585,33.0227051 C792.892822,34.1638184 796.302246,35.9172363 798.974121,38.282959 C801.645996,40.6486816 803.594238,43.6962891 804.818848,47.4257812 C806.043457,51.1552734 806.655762,55.5805664 806.655762,60.7016602 L806.655762,110.799316 Z M786.032227,78.9038086 L778.016602,78.9038086 C774.621094,78.9038086 771.726562,79.1542969 769.333008,79.6552734 C766.939453,80.15625 764.991211,80.9077148 763.488281,81.909668 C761.985352,82.9116211 760.885986,84.1223145 760.190186,85.541748 C759.494385,86.9611816 759.146484,88.5893555 759.146484,90.4262695 C759.146484,93.543457 760.134521,95.9926758 762.110596,97.7739258 C764.08667,99.5551758 766.828125,100.445801 770.334961,100.445801 C773.285156,100.445801 775.998779,99.6943359 778.47583,98.1914062 C780.952881,96.6884766 783.47168,94.4897461 786.032227,91.5952148 L786.032227,78.9038086 Z" id="Shape"></path>
                <path d="M853.998047,110.548828 C853.998047,111.105469 853.831055,111.592529 853.49707,112.01001 C853.163086,112.42749 852.592529,112.775391 851.7854,113.053711 C850.978271,113.332031 849.906738,113.540771 848.570801,113.679932 C847.234863,113.819092 845.537109,113.888672 843.477539,113.888672 C841.417969,113.888672 839.720215,113.819092 838.384277,113.679932 C837.04834,113.540771 835.976807,113.332031 835.169678,113.053711 C834.362549,112.775391 833.791992,112.42749 833.458008,112.01001 C833.124023,111.592529 832.957031,111.105469 832.957031,110.548828 L832.957031,36.2373047 C832.957031,35.6806641 833.124023,35.1936035 833.458008,34.776123 C833.791992,34.3586426 834.362549,33.9968262 835.169678,33.6906738 C835.976807,33.3845215 837.04834,33.1479492 838.384277,32.980957 C839.720215,32.8139648 841.417969,32.7304688 843.477539,32.7304688 C845.537109,32.7304688 847.234863,32.8139648 848.570801,32.980957 C849.906738,33.1479492 850.978271,33.3845215 851.7854,33.6906738 C852.592529,33.9968262 853.163086,34.3586426 853.49707,34.776123 C853.831055,35.1936035 853.998047,35.6806641 853.998047,36.2373047 L853.998047,110.548828 Z M855.584473,10.8544922 C855.584473,15.0849609 854.72168,18.0073242 852.996094,19.621582 C851.270508,21.2358398 848.069824,22.0429688 843.394043,22.0429688 C838.662598,22.0429688 835.47583,21.2636719 833.83374,19.7050781 C832.19165,18.1464844 831.370605,15.3354492 831.370605,11.2719727 C831.370605,7.04150391 832.219482,4.10522461 833.917236,2.46313477 C835.61499,0.821044922 838.82959,0 843.561035,0 C848.236816,0 851.409668,0.793212891 853.07959,2.37963867 C854.749512,3.96606445 855.584473,6.79101562 855.584473,10.8544922 Z" id="Shape"></path>
            </g>
        </g>
    </g>
</svg>